
<svg width="220" height="33" viewBox="0 0 220 33" fill="none" xmlns="http://www.w3.org/2000/svg">
<path d="M33 16.5C33 14.5948 31.1271 13.0504 27.3709 13.0504C26.2651 13.0504 24.8688 13.2792 23.4491 13.621C24.6957 12.8583 25.8441 12.0326 26.6259 11.2508C29.282 8.5947 29.5137 6.1791 28.1673 4.83123C26.8209 3.48483 24.4039 3.71657 21.7477 6.3727C20.966 7.15443 20.1403 8.30283 19.3776 9.5495C19.7208 8.12977 19.9481 6.7335 19.9481 5.62763C19.9481 1.8715 18.4037 -0.00143433 16.4985 -0.00143433C14.5933 -0.00143433 13.0489 1.8715 13.0489 5.62763C13.0489 6.7335 13.2777 8.12977 13.6195 9.5495C12.8568 8.30283 12.0311 7.15443 11.2493 6.3727C8.5932 3.71657 6.1776 3.48483 4.82973 4.83123C3.48333 6.17763 3.71507 8.5947 6.3712 11.2508C7.15293 12.0326 8.30133 12.8583 9.548 13.621C8.12827 13.2778 6.732 13.0504 5.62613 13.0504C1.87293 13.0504 0 14.5948 0 16.5C0 18.4052 1.87293 19.9496 5.62907 19.9496C6.73493 19.9496 8.1312 19.7208 9.55093 19.3791C8.30427 20.1418 7.15587 20.9675 6.37413 21.7492C3.718 24.4054 3.48627 26.821 4.83267 28.1688C6.17907 29.5152 8.59613 29.2835 11.2523 26.6274C12.034 25.8456 12.8597 24.6972 13.6224 23.4506C13.2792 24.8703 13.0519 26.2666 13.0519 27.3724C13.0519 31.1286 14.5963 33.0015 16.5015 33.0015C18.4067 33.0015 19.9511 31.1286 19.9511 27.3724C19.9511 26.2666 19.7223 24.8703 19.3805 23.4506C20.1432 24.6972 20.9689 25.8456 21.7507 26.6274C24.4068 29.2835 26.8224 29.5152 28.1703 28.1688C29.5167 26.8224 29.2849 24.4054 26.6288 21.7492C25.8471 20.9675 24.6987 20.1418 23.452 19.3791C24.8717 19.7223 26.268 19.9496 27.3739 19.9496C31.13 19.9496 33.0029 18.4052 33.0029 16.5H33Z" fill="#010101"/>
<path d="M60.234 27.776C56.946 27.776 54.394 26.784 52.578 24.8C50.762 22.816 49.854 20.128 49.854 16.736C49.854 13.344 50.762 10.656 52.578 8.672C54.394 6.688 56.946 5.696 60.234 5.696C62.506 5.696 64.458 6.176 66.09 7.136C67.722 8.096 68.986 9.472 69.882 11.264L66.81 12.992C66.202 11.776 65.402 10.896 64.41 10.352C63.418 9.808 62.218 9.536 60.81 9.536C58.794 9.536 57.242 10.208 56.154 11.552C55.066 12.896 54.522 14.656 54.522 16.832C54.522 19.008 55.066 20.768 56.154 22.112C57.242 23.456 58.794 24.128 60.81 24.128C62.218 24.128 63.418 23.856 64.41 23.312C65.402 22.768 66.202 21.888 66.81 20.672L69.882 22.4C68.986 24.192 67.722 25.568 66.09 26.528C64.458 27.488 62.506 27.968 60.234 27.968V27.776Z" fill="#010101"/>
<path d="M84.6509 27.776C81.3629 27.776 78.8109 26.784 76.9949 24.8C75.1789 22.816 74.2709 20.128 74.2709 16.736C74.2709 13.344 75.1789 10.656 76.9949 8.672C78.8109 6.688 81.3629 5.696 84.6509 5.696C87.9389 5.696 90.4909 6.688 92.3069 8.672C94.1229 10.656 95.0309 13.344 95.0309 16.736C95.0309 20.128 94.1229 22.816 92.3069 24.8C90.4909 26.784 87.9389 27.776 84.6509 27.776ZM84.6509 24.128C86.6669 24.128 88.2189 23.456 89.3069 22.112C90.3949 20.768 90.9389 19.008 90.9389 16.832C90.9389 14.656 90.3949 12.896 89.3069 11.552C88.2189 10.208 86.6669 9.536 84.6509 9.536C82.6349 9.536 81.0829 10.208 79.9949 11.552C78.9069 12.896 78.3629 14.656 78.3629 16.832C78.3629 19.008 78.9069 20.768 79.9949 22.112C81.0829 23.456 82.6349 24.128 84.6509 24.128Z" fill="#010101"/>
<path d="M115.723 5.696C118.267 5.696 120.299 6.48 121.819 8.048C123.339 9.616 124.099 11.776 124.099 14.528V27.584H120.007V25.184C119.335 26.08 118.491 26.752 117.475 27.2C116.459 27.648 115.259 27.872 113.875 27.872C111.539 27.872 109.715 27.264 108.403 26.048C107.091 24.832 106.435 23.2 106.435 21.152C106.435 19.104 107.091 17.472 108.403 16.256C109.715 15.04 111.539 14.432 113.875 14.432C115.259 14.432 116.459 14.656 117.475 15.104C118.491 15.552 119.335 16.224 120.007 17.12V14.528C120.007 13.184 119.607 12.128 118.807 11.36C118.007 10.592 116.875 10.208 115.411 10.208C114.139 10.208 113.011 10.48 112.027 11.024C111.043 11.568 110.243 12.352 109.627 13.376L107.131 11.072C108.059 9.664 109.307 8.576 110.875 7.808C112.443 7.04 114.171 6.656 116.059 6.656L115.723 5.696ZM115.027 24.224C116.347 24.224 117.475 23.84 118.411 23.072C119.347 22.304 119.815 21.344 119.815 20.192C119.815 19.04 119.347 18.08 118.411 17.312C117.475 16.544 116.347 16.16 115.027 16.16C113.707 16.16 112.579 16.544 111.643 17.312C110.707 18.08 110.239 19.04 110.239 20.192C110.239 21.344 110.707 22.304 111.643 23.072C112.579 23.84 113.707 24.224 115.027 24.224Z" fill="#010101"/>
<path d="M141.389 27.776C139.645 27.776 138.149 27.456 136.901 26.816C135.653 26.176 134.701 25.28 134.045 24.128C133.389 22.976 133.061 21.632 133.061 20.096V9.824H137.153V20.096C137.153 21.44 137.517 22.496 138.245 23.264C138.973 24.032 139.981 24.416 141.269 24.416C142.557 24.416 143.565 24.032 144.293 23.264C145.021 22.496 145.385 21.44 145.385 20.096V9.824H149.477V20.096C149.477 21.632 149.149 22.976 148.493 24.128C147.837 25.28 146.885 26.176 145.637 26.816C144.389 27.456 142.893 27.776 141.149 27.776H141.389Z" fill="#010101"/>
<path d="M168.234 27.776C164.946 27.776 162.394 26.784 160.578 24.8C158.762 22.816 157.854 20.128 157.854 16.736C157.854 13.344 158.762 10.656 160.578 8.672C162.394 6.688 164.946 5.696 168.234 5.696C170.506 5.696 172.458 6.176 174.09 7.136C175.722 8.096 176.986 9.472 177.882 11.264L174.81 12.992C174.202 11.776 173.402 10.896 172.41 10.352C171.418 9.808 170.218 9.536 168.81 9.536C166.794 9.536 165.242 10.208 164.154 11.552C163.066 12.896 162.522 14.656 162.522 16.832C162.522 19.008 163.066 20.768 164.154 22.112C165.242 23.456 166.794 24.128 168.81 24.128C170.218 24.128 171.418 23.856 172.41 23.312C173.402 22.768 174.202 21.888 174.81 20.672L177.882 22.4C176.986 24.192 175.722 25.568 174.09 26.528C172.458 27.488 170.506 27.968 168.234 27.968V27.776Z" fill="#010101"/>
<path d="M186.389 27.584V5.888H190.481V11.072C191.153 9.984 192.045 9.152 193.157 8.576C194.269 8 195.517 7.712 196.901 7.712C199.301 7.712 201.189 8.48 202.565 10.016C203.941 11.552 204.629 13.664 204.629 16.352V27.584H200.537V16.352C200.537 14.88 200.173 13.744 199.445 12.944C198.717 12.144 197.709 11.744 196.421 11.744C195.133 11.744 194.125 12.144 193.397 12.944C192.669 13.744 192.305 14.88 192.305 16.352V27.584H186.389Z" fill="#010101"/>
<path d="M212.389 27.584V5.888H216.481V11.072C217.153 9.984 218.045 9.152 219.157 8.576C220.269 8 221.517 7.712 222.901 7.712C225.301 7.712 227.189 8.48 228.565 10.016C229.941 11.552 230.629 13.664 230.629 16.352V27.584H226.537V16.352C226.537 14.88 226.173 13.744 225.445 12.944C224.717 12.144 223.709 11.744 222.421 11.744C221.133 11.744 220.125 12.144 219.397 12.944C218.669 13.744 218.305 14.88 218.305 16.352V27.584H212.389Z" fill="#010101"/>
</svg>
